<?xml version="1.0" encoding="utf-8"?>
<!-- Generator: Adobe Illustrator 16.0.0, SVG Export Plug-In . SVG Version: 6.00 Build 0)  -->
<!DOCTYPE svg PUBLIC "-//W3C//DTD SVG 1.1//EN" "http://www.w3.org/Graphics/SVG/1.1/DTD/svg11.dtd">
<svg version="1.1" id="Layer_1" xmlns="http://www.w3.org/2000/svg" xmlns:xlink="http://www.w3.org/1999/xlink" x="0px" y="0px"
	 width="60px" height="60px" viewBox="0 0 60 60" enable-background="new 0 0 60 60" xml:space="preserve">
<g>
	<path fill-rule="evenodd" clip-rule="evenodd" fill="black" d="M0.44,30.298C0.27,14.188,13.041,1.021,28.896,0.457
		C45.54-0.135,58.817,12.881,59.53,28.578c0.762,16.812-12.344,30.23-28.114,30.953C14.419,60.311,0.572,46.778,0.44,30.298z
		 M56.988,30.007C57.001,15.228,45.162,3.235,30.447,3.01C15.302,2.777,3.28,14.808,3.009,29.454
		C2.724,44.829,15.09,57.012,30.006,56.99C44.94,56.97,56.973,44.94,56.988,30.007z"/>
	<path fill-rule="evenodd" clip-rule="evenodd" fill="black" d="M31.56,28.439c0.116,0,0.197,0,0.279,0
		c2.505,0,5.011-0.001,7.517,0.001c0.668,0,1.22,0.489,1.297,1.146c0.076,0.643-0.351,1.253-0.991,1.401
		c-0.156,0.036-0.323,0.037-0.485,0.037c-2.451,0.003-4.902,0.002-7.354,0.002c-0.073,0-0.147,0-0.25,0
		c-0.004,0.097-0.012,0.181-0.012,0.266c0,2.466-0.002,4.929,0.002,7.395c0.001,0.437-0.104,0.824-0.446,1.114
		c-0.41,0.348-0.876,0.425-1.369,0.208c-0.501-0.222-0.77-0.626-0.771-1.172c-0.007-2.512-0.003-5.023-0.003-7.536
		c0-0.081,0-0.162,0-0.274c-0.098,0-0.184,0-0.27,0c-2.472,0-4.943-0.003-7.415,0.002c-0.574,0.001-1.024-0.208-1.283-0.734
		c-0.421-0.857,0.2-1.853,1.156-1.854c2.511-0.004,5.023-0.001,7.536-0.001c0.082,0,0.163,0,0.275,0c0-0.086,0-0.165,0-0.243
		c0-2.519,0-5.038,0-7.557c0-0.684,0.497-1.225,1.189-1.301c0.608-0.066,1.214,0.371,1.36,0.996
		c0.037,0.157,0.037,0.324,0.038,0.486c0,2.444,0,4.889,0,7.332C31.56,28.239,31.56,28.326,31.56,28.439z"/>
</g>
</svg>
