<?xml version="1.0"?>
<svg xmlns="http://www.w3.org/2000/svg" xmlns:xlink="http://www.w3.org/1999/xlink" version="1.1" viewBox="0 0 192 192" width="50px" height="50px"><g fill="none" fill-rule="nonzero" stroke="none" stroke-width="1" stroke-linecap="butt" stroke-linejoin="miter" stroke-miterlimit="10" stroke-dasharray="" stroke-dashoffset="0" font-family="none" font-weight="none" font-size="none" text-anchor="none" style="mix-blend-mode: normal"><path d="M0,192v-192h192v192z" fill="none"/><g fill="#ffffff"><g id="surface1"><path d="M164.64,33.12c-0.12,0.03 -0.24,0.075 -0.36,0.12c-1.005,0.255 -1.875,0.9 -2.4,1.8l-78.48,121.68l-54,-48.72c-0.945,-1.2 -2.52,-1.725 -4.005,-1.335c-1.485,0.39 -2.58,1.635 -2.805,3.15c-0.225,1.515 0.465,3.015 1.77,3.825l57.24,51.84c0.84,0.735 1.965,1.065 3.075,0.9c1.11,-0.165 2.085,-0.795 2.685,-1.74l81,-125.52c0.885,-1.26 0.93,-2.925 0.12,-4.23c-0.81,-1.305 -2.325,-1.995 -3.84,-1.77z"/></g></g></g></svg>
