<?xml version="1.0" encoding="utf-8"?>
<!-- Generator: Adobe Illustrator 16.0.0, SVG Export Plug-In . SVG Version: 6.00 Build 0)  -->
<!DOCTYPE svg PUBLIC "-//W3C//DTD SVG 1.1//EN" "http://www.w3.org/Graphics/SVG/1.1/DTD/svg11.dtd">
<svg version="1.1" id="Layer_1" xmlns="http://www.w3.org/2000/svg" xmlns:xlink="http://www.w3.org/1999/xlink" x="0px" y="0px"
	 width="50px" height="50px" viewBox="0 0 50 50" enable-background="new 0 0 50 50" xml:space="preserve">
<path fill-rule="evenodd" clip-rule="evenodd" fill="#525153" d="M24.825,49.039C11.935,49.154,0.568,38.637,0.879,24.25
	C1.145,11.982,11.147,0.988,25.083,0.959c13.3-0.027,23.884,10.82,23.888,24.402C48.978,38.43,38.156,49.043,24.825,49.039z
	 M37.181,33.447c-2.988-2.908-5.832-5.678-8.941-8.705c2.934-2.822,5.8-5.58,8.395-8.076c-1.097-1.255-2.094-2.396-3.378-3.865
	c-2.833,2.924-5.597,5.776-8.541,8.815c-2.784-2.886-5.523-5.724-8.223-8.523c-1.185,1.19-2.254,2.263-3.575,3.589
	c2.835,2.694,5.722,5.436,8.698,8.263c-2.99,2.98-5.806,5.789-8.646,8.621c1.215,1.141,2.328,2.182,3.691,3.461
	c2.717-2.799,5.511-5.674,8.532-8.785c2.889,2.955,5.667,5.797,8.35,8.543C34.666,35.756,35.766,34.746,37.181,33.447z"/>
<path fill-rule="evenodd" clip-rule="evenodd" fill="#7D7C7E" d="M37.181,33.447c-1.415,1.299-2.515,2.309-3.638,3.338
	c-2.684-2.746-5.461-5.588-8.35-8.543c-3.021,3.111-5.815,5.986-8.532,8.785c-1.363-1.279-2.476-2.32-3.691-3.461
	c2.84-2.832,5.656-5.641,8.646-8.621c-2.976-2.827-5.863-5.569-8.698-8.263c1.321-1.326,2.39-2.399,3.575-3.589
	c2.7,2.799,5.439,5.637,8.223,8.523c2.944-3.039,5.708-5.892,8.541-8.815c1.284,1.47,2.281,2.61,3.378,3.865
	c-2.595,2.497-5.461,5.254-8.395,8.076C31.349,27.77,34.192,30.539,37.181,33.447z"/>
</svg>
