<?xml version="1.0" encoding="utf-8"?>
<!-- Generator: Adobe Illustrator 16.0.0, SVG Export Plug-In . SVG Version: 6.00 Build 0)  -->
<!DOCTYPE svg PUBLIC "-//W3C//DTD SVG 1.1//EN" "http://www.w3.org/Graphics/SVG/1.1/DTD/svg11.dtd">
<svg version="1.1" id="Layer_1" xmlns="http://www.w3.org/2000/svg" xmlns:xlink="http://www.w3.org/1999/xlink" x="0px" y="0px"
	 width="32px" height="32px" viewBox="0 0 32 32" enable-background="new 0 0 32 32" xml:space="preserve">
<path fill="none" stroke="#DAD8D9" stroke-width="2" d="M31,16c0,8.284-6.716,15-15,15S1,24.284,1,16S7.716,1,16,1S31,7.716,31,16z"
	/>
<path fill="#DAD8D9" d="M16,9c-4.419,0-8,2.909-8,6.5c0,1.55,0.669,2.969,1.781,4.084c-0.391,1.575-1.697,2.979-1.712,2.994
	C8,22.65,7.981,22.756,8.022,22.85S8.15,23,8.25,23c2.072,0,3.625-0.994,4.394-1.605C13.666,21.777,14.8,22,16,22
	c4.419,0,8-2.909,8-6.5S20.419,9,16,9z"/>
</svg>
