<?xml version="1.0" encoding="utf-8"?>
<!-- Generator: Adobe Illustrator 16.0.0, SVG Export Plug-In . SVG Version: 6.00 Build 0)  -->
<!DOCTYPE svg PUBLIC "-//W3C//DTD SVG 1.1//EN" "http://www.w3.org/Graphics/SVG/1.1/DTD/svg11.dtd">
<svg version="1.1" id="Layer_1" xmlns="http://www.w3.org/2000/svg" xmlns:xlink="http://www.w3.org/1999/xlink" x="0px" y="0px"
	 width="50px" height="50px" viewBox="0 0 50 50" enable-background="new 0 0 50 50" xml:space="preserve">
<g>
	<path fill-rule="evenodd" clip-rule="evenodd" fill="#397E2F" d="M27.936,46.192c-0.258,0.982-0.846,1.46-1.895,1.266
		c-7.857-1.455-15.716-2.904-23.573-4.362c-1.012-0.188-1.565-0.74-1.563-1.854c0.016-10.826,0.018-21.653,0-32.48
		C0.902,7.582,1.501,7.063,2.561,6.867c7.626-1.413,15.25-2.839,22.878-4.243c1.639-0.302,1.982-0.111,2.496,1.165
		c-0.031,3.509,0.516,7.001,0.293,10.514c0.027,1.04,0.037,2.08-0.002,3.119c0.028,1.025,0.032,2.051-0.001,3.076
		c0.028,1.021,0.032,2.041-0.001,3.062c0.029,0.946,0.031,1.892,0,2.838c0.031,1.021,0.032,2.041,0.001,3.062
		c0.03,1.025,0.032,2.051,0.001,3.076c0.037,1.041,0.031,2.081,0.002,3.122C28.449,39.178,27.904,42.678,27.936,46.192z"/>
	<path fill-rule="evenodd" clip-rule="evenodd" fill="#EBEEF0" d="M27.936,46.192c-0.012-3.519-0.022-7.036-0.033-10.555
		c0.422-0.476,0.997-0.354,1.529-0.375c0.932-0.039,1.871,0.077,2.795-0.094c0.645-0.118,1.27-0.392,1.25-1.155
		c-0.02-0.817-0.641-1.091-1.373-1.126c-0.973-0.047-1.945,0.003-2.918-0.028c-0.454-0.015-0.953,0.063-1.271-0.402
		c0-0.971,0.001-1.942,0.001-2.914c0.354-0.503,0.897-0.387,1.386-0.404c0.973-0.034,1.947,0.031,2.918-0.037
		c0.694-0.049,1.242-0.364,1.262-1.115c0.018-0.704-0.535-0.998-1.14-1.131c-0.96-0.211-1.939-0.075-2.909-0.118
		c-0.532-0.023-1.106,0.1-1.53-0.376c0-0.913,0.001-1.827,0.001-2.74c0.422-0.477,0.997-0.354,1.529-0.376
		c0.932-0.038,1.871,0.078,2.795-0.093c0.645-0.119,1.27-0.393,1.25-1.155c-0.02-0.817-0.641-1.092-1.373-1.127
		c-0.973-0.046-1.945,0.003-2.918-0.028c-0.454-0.014-0.953,0.064-1.271-0.401c0-0.972,0-1.942,0-2.914
		c0.354-0.503,0.897-0.388,1.386-0.404c0.973-0.034,1.947,0.03,2.918-0.037c0.694-0.049,1.242-0.365,1.262-1.116
		c0.018-0.703-0.535-0.998-1.14-1.131c-0.96-0.211-1.939-0.074-2.909-0.118c-0.532-0.023-1.106,0.101-1.53-0.375
		c0.012-3.519,0.022-7.037,0.034-10.556c0.41,1.183,0.168,2.403,0.164,3.601c-0.004,0.888,0.272,1.13,1.146,1.125
		c5.851-0.035,11.7-0.019,17.551-0.018c1.628,0,2.257,0.595,2.285,2.241c0.028,1.688,0.007,3.377,0.007,5.065
		c0,7.656,0.001,15.312,0,22.969c-0.001,2.201-0.504,2.713-2.646,2.713c-5.692,0-11.387,0.021-17.079-0.021
		c-0.973-0.007-1.286,0.257-1.268,1.247C28.118,43.867,28.342,45.051,27.936,46.192z"/>
	<path fill-rule="evenodd" clip-rule="evenodd" fill="#F9F9F9" d="M14.807,22.289c1.432-1.857,2.769-3.598,4.114-5.332
		c0.774-1,1.626-1.225,2.404-0.652c0.793,0.584,0.808,1.441,0.01,2.474c-1.272,1.646-2.528,3.304-3.856,4.903
		c-0.546,0.657-0.594,1.088,0.028,1.737c1.274,1.331,2.46,2.748,3.672,4.138c0.936,1.073,0.984,1.843,0.186,2.552
		c-0.767,0.681-1.515,0.516-2.491-0.584c-1.042-1.174-2.126-2.317-3.075-3.564c-0.733-0.965-1.13-0.76-1.729,0.111
		c-0.842,1.226-1.795,2.377-2.725,3.541c-0.803,1.006-1.63,1.164-2.412,0.507c-0.727-0.61-0.718-1.366,0.062-2.383
		c1.1-1.431,2.179-2.881,3.343-4.257c0.525-0.621,0.466-0.988-0.068-1.55c-1.082-1.136-2.083-2.348-3.112-3.533
		c-0.923-1.064-0.982-1.923-0.186-2.555c0.744-0.591,1.601-0.387,2.435,0.568C12.516,19.681,13.629,20.946,14.807,22.289z"/>
	<path fill-rule="evenodd" clip-rule="evenodd" fill="#44903A" d="M27.901,14.345c1.401,0.233,2.813,0.034,4.218,0.111
		c1.475,0.082,2.229,1.134,1.613,2.234c-0.348,0.623-0.922,0.779-1.591,0.782c-1.409,0.005-2.817,0.034-4.227,0.054
		C27.91,16.466,27.906,15.405,27.901,14.345z"/>
	<path fill-rule="evenodd" clip-rule="evenodd" fill="#44903A" d="M27.915,20.44c1.409,0.02,2.817,0.059,4.226,0.052
		c1.019-0.005,1.672,0.434,1.795,1.451c0.103,0.839-0.627,1.49-1.699,1.562c-1.442,0.096-2.895-0.12-4.334,0.116
		C27.906,22.561,27.91,21.5,27.915,20.44z"/>
	<path fill-rule="evenodd" clip-rule="evenodd" fill="#44903A" d="M27.901,26.361c1.401,0.234,2.813,0.035,4.218,0.112
		c1.475,0.081,2.229,1.134,1.613,2.234c-0.348,0.623-0.922,0.779-1.591,0.781c-1.409,0.005-2.817,0.034-4.227,0.054
		C27.91,28.482,27.906,27.422,27.901,26.361z"/>
	<path fill-rule="evenodd" clip-rule="evenodd" fill="#44903A" d="M27.914,32.457c1.409,0.02,2.818,0.059,4.227,0.052
		c1.019-0.005,1.672,0.434,1.795,1.451c0.103,0.839-0.627,1.491-1.699,1.562c-1.442,0.096-2.895-0.119-4.334,0.116
		C27.906,34.578,27.91,33.518,27.914,32.457z"/>
	<path fill-rule="evenodd" clip-rule="evenodd" fill="#44903A" d="M39.859,17.45c-0.51,0-1.024,0.049-1.526-0.011
		c-0.802-0.096-1.271-0.585-1.31-1.401c-0.036-0.761,0.336-1.311,1.086-1.455c1.235-0.237,2.49-0.233,3.727,0.003
		c0.756,0.145,1.137,0.711,1.107,1.449c-0.033,0.801-0.526,1.309-1.324,1.398c-0.58,0.066-1.174,0.013-1.76,0.013
		C39.859,17.448,39.859,17.449,39.859,17.45z"/>
	<path fill-rule="evenodd" clip-rule="evenodd" fill="#44903A" d="M40.186,23.542c-0.885-0.068-1.514,0.055-2.127-0.156
		c-0.729-0.251-1.086-0.751-1.033-1.508c0.053-0.763,0.502-1.285,1.24-1.336c1.131-0.078,2.273-0.082,3.402,0.004
		c0.793,0.061,1.271,0.631,1.275,1.435c0.004,0.739-0.399,1.28-1.156,1.414C41.177,23.503,40.547,23.511,40.186,23.542z"/>
	<path fill-rule="evenodd" clip-rule="evenodd" fill="#44903A" d="M39.922,29.478c-0.469-0.001-0.939,0.018-1.408-0.005
		c-0.86-0.041-1.406-0.481-1.484-1.354c-0.079-0.884,0.402-1.442,1.243-1.567c1.122-0.167,2.266-0.165,3.39,0.002
		c0.85,0.125,1.343,0.694,1.277,1.552c-0.066,0.854-0.634,1.318-1.49,1.368C40.941,29.503,40.432,29.479,39.922,29.478z"/>
	<path fill-rule="evenodd" clip-rule="evenodd" fill="#44903A" d="M39.983,32.525c0.509-0.001,1.021-0.037,1.526,0.008
		c0.854,0.074,1.396,0.563,1.432,1.423c0.032,0.8-0.424,1.352-1.225,1.478c-1.162,0.183-2.342,0.188-3.502-0.001
		c-0.793-0.129-1.238-0.67-1.189-1.495c0.051-0.872,0.568-1.347,1.432-1.405C38.963,32.498,39.475,32.525,39.983,32.525z"/>
</g>
</svg>
