<?xml version="1.0" encoding="utf-8"?>
<!-- Generator: Adobe Illustrator 16.0.0, SVG Export Plug-In . SVG Version: 6.00 Build 0)  -->
<!DOCTYPE svg PUBLIC "-//W3C//DTD SVG 1.1//EN" "http://www.w3.org/Graphics/SVG/1.1/DTD/svg11.dtd">
<svg version="1.1" id="Layer_1" xmlns="http://www.w3.org/2000/svg" xmlns:xlink="http://www.w3.org/1999/xlink" x="0px" y="0px"
	 width="32px" height="32px" viewBox="0 0 32 32" enable-background="new 0 0 32 32" xml:space="preserve">
<g>
	<path fill-rule="evenodd" clip-rule="evenodd" fill="#3963EA" d="M54.677,10.044c0-0.544-0.009-1.088,0.003-1.633
		c0.005-0.34-0.13-0.604-0.481-0.743c-0.346-0.137-0.66-0.054-0.939,0.171c-1.528,1.228-3.058,2.451-4.585,3.677
		c-1.128,0.905-2.26,1.811-3.384,2.723c-0.595,0.484-0.587,0.854,0.017,1.34c2.6,2.088,5.202,4.174,7.806,6.26
		c0.125,0.104,0.252,0.211,0.4,0.283c0.463,0.225,1.07-0.047,1.146-0.533c0.101-0.662,0.03-1.332,0.037-2
		c0.007-0.506-0.002-1.012-0.025-1.516c-0.009-0.211,0.084-0.248,0.296-0.25c1.554-0.012,2.977,0.391,4.306,1.074
		c2.068,1.068,3.623,2.594,4.845,4.408c0.147,0.221,0.302,0.438,0.459,0.654c0.265,0.367,0.648,0.516,0.991,0.395
		c0.44-0.156,0.641-0.49,0.57-0.947c-0.124-0.801-0.255-1.604-0.362-2.406c-0.122-0.932-0.316-1.844-0.7-2.721
		c-0.651-1.492-1.678-2.744-3.04-3.771c-2.013-1.518-4.368-2.285-6.978-2.469c-0.258-0.019-0.375-0.077-0.365-0.337
		c0.025-0.553,0.007-1.107,0.007-1.66C54.69,10.044,54.684,10.044,54.677,10.044z"/>
</g>
<g>
	<path fill-rule="evenodd" clip-rule="evenodd" fill="#F5C144" d="M11.915,21.955c0,0.544,0.009,1.088-0.003,1.633
		c-0.005,0.34,0.13,0.604,0.481,0.742c0.346,0.137,0.66,0.055,0.939-0.172c1.528-1.227,3.058-2.45,4.586-3.677
		c1.127-0.905,2.259-1.812,3.383-2.723c0.595-0.483,0.588-0.854-0.016-1.341c-2.601-2.087-5.203-4.173-7.807-6.259
		c-0.125-0.104-0.252-0.211-0.4-0.283c-0.463-0.225-1.07,0.047-1.146,0.533c-0.101,0.662-0.03,1.332-0.037,2
		c-0.007,0.506,0.002,1.012,0.025,1.516c0.009,0.211-0.084,0.248-0.296,0.25c-1.554,0.012-2.977-0.391-4.306-1.074
		c-2.068-1.068-3.623-2.594-4.845-4.408C2.327,8.472,2.173,8.255,2.016,8.038C1.751,7.671,1.367,7.522,1.024,7.644
		c-0.44,0.156-0.641,0.49-0.57,0.947c0.124,0.801,0.255,1.604,0.362,2.406c0.122,0.932,0.316,1.844,0.7,2.721
		c0.651,1.492,1.678,2.743,3.04,3.771c2.013,1.518,4.368,2.285,6.978,2.47c0.258,0.019,0.375,0.077,0.365,0.337
		c-0.025,0.553-0.007,1.107-0.007,1.66C11.901,21.955,11.908,21.955,11.915,21.955z"/>
	<path fill-rule="evenodd" clip-rule="evenodd" fill="#F5C144" d="M26.644,17.094c0.005-0.23-0.131-0.414-0.331-0.574
		c-1.439-1.154-2.879-2.31-4.316-3.466c-1.234-0.99-2.467-1.979-3.696-2.973c-0.234-0.188-0.478-0.318-0.809-0.264
		c-0.34,0.059-0.55,0.246-0.646,0.531c-0.095,0.291,0.021,0.531,0.258,0.725c0.758,0.615,1.524,1.229,2.289,1.84
		c1.687,1.352,3.371,2.707,5.062,4.054c0.146,0.117,0.1,0.166-0.019,0.26c-1.56,1.25-3.115,2.504-4.675,3.757
		c-0.882,0.709-1.766,1.414-2.646,2.126c-0.38,0.31-0.401,0.752-0.067,1.07c0.298,0.283,0.793,0.297,1.154,0.009
		c1.65-1.317,3.298-2.638,4.944-3.96c1.027-0.822,2.051-1.646,3.074-2.471C26.437,17.584,26.646,17.402,26.644,17.094z"/>
	<path fill-rule="evenodd" clip-rule="evenodd" fill="#F5C144" d="M31.56,17.094c0.005-0.23-0.131-0.414-0.331-0.574
		c-1.439-1.154-2.879-2.31-4.316-3.466c-1.234-0.99-2.467-1.979-3.696-2.973c-0.234-0.188-0.478-0.318-0.809-0.264
		c-0.34,0.059-0.55,0.246-0.646,0.531c-0.095,0.291,0.021,0.531,0.258,0.725c0.758,0.615,1.524,1.229,2.289,1.84
		c1.687,1.352,3.371,2.707,5.062,4.054c0.146,0.117,0.1,0.166-0.019,0.26c-1.56,1.25-3.115,2.504-4.675,3.757
		c-0.882,0.709-1.766,1.414-2.646,2.126c-0.38,0.31-0.401,0.752-0.067,1.07c0.298,0.283,0.793,0.297,1.154,0.009
		c1.65-1.317,3.298-2.638,4.944-3.96c1.027-0.822,2.051-1.646,3.074-2.471C31.353,17.584,31.562,17.402,31.56,17.094z"/>
</g>
</svg>
