<?xml version="1.0" encoding="utf-8"?>
<!-- Generator: Adobe Illustrator 16.0.0, SVG Export Plug-In . SVG Version: 6.00 Build 0)  -->
<!DOCTYPE svg PUBLIC "-//W3C//DTD SVG 1.1//EN" "http://www.w3.org/Graphics/SVG/1.1/DTD/svg11.dtd">
<svg version="1.1" id="Layer_1" xmlns="http://www.w3.org/2000/svg" xmlns:xlink="http://www.w3.org/1999/xlink" x="0px" y="0px"
	 width="50px" height="50px" viewBox="0 0 50 50" enable-background="new 0 0 50 50" xml:space="preserve">
<g>
	<path fill-rule="evenodd" clip-rule="evenodd" fill="#1D1D1D" d="M15.332,35.043c0-2.899,0.039-5.8-0.032-8.697
		c-0.015-0.586-0.299-1.301-0.704-1.719c-4.147-4.274-8.328-8.517-12.542-12.726c-0.757-0.757-1.11-1.537-1.043-2.599
		C1.083,8.17,1.045,7.03,1.023,5.894C1.002,4.876,1.417,4.387,2.485,4.389c11.951,0.015,23.902,0.006,35.854,0.015
		c1.254,0.001,1.571,0.354,1.606,1.624c0.002,0.04-0.005,0.08,0.002,0.118c0.545,3.296-0.623,5.743-3.152,7.991
		c-3.653,3.249-6.94,6.906-10.418,10.356c-0.579,0.575-0.797,1.155-0.791,1.959c0.033,4.428-0.011,8.855,0.034,13.283
		c0.011,1.078-0.331,1.72-1.341,2.188c-2.272,1.052-4.485,2.232-6.731,3.342c-1.509,0.745-2.207,0.3-2.213-1.404
		C15.325,40.921,15.332,37.982,15.332,35.043z M36.168,11.322c-10.503,0-20.844,0-31.357,0c0.36,0.397,0.602,0.685,0.864,0.951
		c3.547,3.598,7.066,7.223,10.667,10.766c0.949,0.934,1.308,1.89,1.291,3.202c-0.066,5.013-0.029,10.025-0.027,15.038
		c0,0.407,0.034,0.813,0.057,1.338c1.748-0.855,3.31-1.664,4.913-2.382c0.646-0.29,0.81-0.676,0.806-1.34
		c-0.026-4.424,0.008-8.85-0.032-13.274c-0.008-0.9,0.28-1.536,0.907-2.165c3.707-3.715,7.377-7.464,11.059-11.204
		C35.577,11.984,35.822,11.701,36.168,11.322z M37.608,6.746c-11.424,0-22.784,0-34.189,0c0,0.753,0,1.43,0,2.109
		c11.441,0,22.802,0,34.189,0C37.608,8.117,37.608,7.468,37.608,6.746z"/>
	<path fill-rule="evenodd" clip-rule="evenodd" fill="#1D1D1D" d="M29.216,30.672c0.044-5.496,4.438-9.896,9.858-9.873
		c5.507,0.023,9.959,4.494,9.922,9.965c-0.036,5.475-4.565,9.948-10.004,9.882C33.55,40.579,29.173,36.113,29.216,30.672z
		 M39.115,23.156c-4.222,0.006-7.635,3.421-7.609,7.614c0.025,4.158,3.438,7.566,7.564,7.556c4.222-0.012,7.636-3.438,7.604-7.636
		C46.645,26.508,43.277,23.151,39.115,23.156z"/>
	<path fill-rule="evenodd" clip-rule="evenodd" fill="#E61E25" d="M37.948,29.599c0-1.287,0.007-2.452-0.002-3.617
		c-0.007-0.854,0.285-1.541,1.229-1.51c0.9,0.03,1.071,0.782,1.08,1.534c0.013,1.134,0.003,2.269,0.003,3.593
		c1.198,0,2.354,0.016,3.51-0.005c0.823-0.015,1.543,0.104,1.541,1.137c-0.002,1.067-0.797,1.097-1.574,1.101
		c-1.095,0.004-2.188,0-3.475,0c0,0.915,0,1.759-0.001,2.602c0,0.391,0.023,0.784-0.009,1.174c-0.062,0.719-0.31,1.35-1.16,1.349
		c-0.94-0.001-1.131-0.689-1.139-1.458c-0.011-1.167-0.003-2.335-0.003-3.667c-1.294,0-2.491-0.001-3.689,0
		c-0.794,0.001-1.452-0.227-1.409-1.164c0.038-0.831,0.616-1.088,1.39-1.072C35.412,29.617,36.586,29.599,37.948,29.599z"/>
</g>
</svg>
