<?xml version="1.0" encoding="utf-8"?>
<!-- Generator: Adobe Illustrator 16.0.0, SVG Export Plug-In . SVG Version: 6.00 Build 0)  -->
<!DOCTYPE svg PUBLIC "-//W3C//DTD SVG 1.1//EN" "http://www.w3.org/Graphics/SVG/1.1/DTD/svg11.dtd">
<svg version="1.1" id="Layer_1" xmlns="http://www.w3.org/2000/svg" xmlns:xlink="http://www.w3.org/1999/xlink" x="0px" y="0px"
	 width="60px" height="60px" viewBox="0 0 60 60" enable-background="new 0 0 60 60" xml:space="preserve">
<g id="user" transform="translate(6 5)">
	<circle id="Oval_3" fill="#D3CFCF" cx="24" cy="25" r="29.084"/>
	<path id="Shape" fill="#3D3D3D" d="M37.059,41.389H10.944c-1.891,0.07-3.483-1.4-3.563-3.291v-2.85
		c0.224-5.291,4.68-9.406,9.972-9.209h1.247c3.457,1.461,7.358,1.461,10.817,0h1.246c5.285-0.188,9.73,3.924,9.957,9.209v2.85
		C40.539,39.988,38.949,41.457,37.059,41.389z M24,23.847c-5.04,0.187-9.283-3.734-9.495-8.772c0.213-5.038,4.457-8.957,9.495-8.771
		c5.04-0.187,9.282,3.733,9.497,8.771C33.283,20.113,29.041,24.033,24,23.847z"/>
</g>
</svg>
