<?xml version="1.0" encoding="utf-8"?>
<!-- Generator: Adobe Illustrator 16.0.0, SVG Export Plug-In . SVG Version: 6.00 Build 0)  -->
<!DOCTYPE svg PUBLIC "-//W3C//DTD SVG 1.1//EN" "http://www.w3.org/Graphics/SVG/1.1/DTD/svg11.dtd">
<svg version="1.1" id="Layer_1" xmlns="http://www.w3.org/2000/svg" xmlns:xlink="http://www.w3.org/1999/xlink" x="0px" y="0px"
	 width="28px" height="33px" viewBox="0 0 28 33" enable-background="new 0 0 28 33" xml:space="preserve">
<path fill="none" stroke="#9D9C9C" stroke-miterlimit="10" d="M27.5,18.5C27.5,25.957,21.456,32,14,32S0.5,25.957,0.5,18.5
	C0.5,11.044,6.544,5,14,5S27.5,11.044,27.5,18.5z"/>
<path fill="#9D9C9C" d="M14,11.5c-4.419,0-8,2.909-8,6.5c0,1.551,0.669,2.969,1.781,4.084c-0.391,1.576-1.697,2.979-1.712,2.994
	C6,25.15,5.981,25.256,6.022,25.35S6.15,25.5,6.25,25.5c2.072,0,3.625-0.994,4.394-1.605C11.666,24.279,12.8,24.5,14,24.5
	c4.419,0,8-2.908,8-6.5C22,14.41,18.419,11.5,14,11.5z"/>
</svg>
